<?xml version="1.0" encoding="utf-8"?>
<!-- Generator: Adobe Illustrator 20.1.0, SVG Export Plug-In . SVG Version: 6.00 Build 0)  -->
<svg version="1.1" id="Layer_1" xmlns="http://www.w3.org/2000/svg" xmlns:xlink="http://www.w3.org/1999/xlink" x="0px" y="0px"
	 viewBox="0 0 44 44" style="enable-background:new 0 0 44 44;" xml:space="preserve">
<style type="text/css">
	.st0{fill:#03034B;}
</style>
<g>
	<path class="st0" d="M36.2,30.3H7.9c-1,0-1.7,0.8-1.7,1.7s0.8,1.7,1.7,1.7h28.3c1,0,1.7-0.8,1.7-1.7S37.1,30.3,36.2,30.3z"/>
	<path class="st0" d="M36.2,20.3H7.9c-1,0-1.7,0.8-1.7,1.7s0.8,1.7,1.7,1.7h28.3c1,0,1.7-0.8,1.7-1.7S37.1,20.3,36.2,20.3z"/>
	<path class="st0" d="M7.9,13.7h28.3c1,0,1.7-0.8,1.7-1.7s-0.8-1.7-1.7-1.7H7.9c-1,0-1.7,0.8-1.7,1.7S6.9,13.7,7.9,13.7z"/>
</g>
</svg>
