<?xml version="1.0" encoding="utf-8"?>
<!-- Generator: Adobe Illustrator 20.1.0, SVG Export Plug-In . SVG Version: 6.00 Build 0)  -->
<svg version="1.1" id="Layer_1" xmlns="http://www.w3.org/2000/svg" xmlns:xlink="http://www.w3.org/1999/xlink" x="0px" y="0px"
	 viewBox="0 0 50 50" style="enable-background:new 0 0 50 50;" xml:space="preserve">
<style type="text/css">
	.st0{fill-rule:evenodd;clip-rule:evenodd;fill:#03034B;}
	.st1{fill-rule:evenodd;clip-rule:evenodd;fill:#CCCCCC;}
	.st2{fill:#FFFFFF;}
	.st3{fill:#E2E2E2;}
</style>
<g>
	<circle class="st0" cx="24" cy="25" r="20.4"/>
	<g>
		<g>
			<g>
				<polygon class="st1" points="11.6,34.5 4.4,38.2 3.5,36.9 11.6,31.5 20,35 28.6,19.1 36.7,8.7 32.4,4.5 47,4.3 46.9,18.9 
					42.7,14.7 33.7,22.9 21.1,39.6 				"/>
				<path class="st2" d="M46.5,4.8l-0.1,12.9L42.7,14l-9.3,8.5L20.9,39l-9.3-5.1l-7.1,3.7l-0.4-0.5l7.4-5l8.6,3.6L29,19.3l8.3-10.7
					L33.6,5L46.5,4.8 M47.6,3.8l-1,0L33.6,4l-2.4,0l1.7,1.7L36,8.7l-7.8,10l-0.1,0.1l0,0.1l-8.3,15.6L12,31.1l-0.5-0.2l-0.4,0.3
					l-7.4,5l-0.9,0.6l0.6,0.8l0.4,0.5l0.5,0.7L5,38.4l6.6-3.4l8.9,4.9l0.8,0.4l0.5-0.7l12.4-16.4l8.6-7.8l3,3l1.7,1.7l0-2.4
					l0.1-12.9L47.6,3.8L47.6,3.8z"/>
			</g>
		</g>
		<g>
			<circle class="st0" cx="30.4" cy="21.9" r="4"/>
			<path class="st3" d="M30.4,26.9c-2.7,0-5-2.2-5-5s2.2-5,5-5s5,2.2,5,5S33.1,26.9,30.4,26.9z M30.4,19c-1.6,0-3,1.3-3,3s1.3,3,3,3
				s3-1.3,3-3S32,19,30.4,19z"/>
		</g>
		<g>
			<circle class="st0" cx="21.6" cy="37.4" r="3.6"/>
			<path class="st3" d="M21.6,41.7c-2.4,0-4.3-1.9-4.3-4.3s1.9-4.3,4.3-4.3s4.3,1.9,4.3,4.3S24,41.7,21.6,41.7z M21.6,34.6
				c-1.6,0-2.8,1.3-2.8,2.8s1.3,2.8,2.8,2.8s2.8-1.3,2.8-2.8S23.1,34.6,21.6,34.6z"/>
		</g>
		<g>
			<circle class="st0" cx="11.8" cy="33.3" r="2.3"/>
			<path class="st3" d="M11.8,36C10.3,36,9,34.8,9,33.3s1.2-2.8,2.8-2.8s2.8,1.2,2.8,2.8S13.3,36,11.8,36z M11.8,31.5
				c-1,0-1.8,0.8-1.8,1.8s0.8,1.8,1.8,1.8s1.8-0.8,1.8-1.8S12.8,31.5,11.8,31.5z"/>
		</g>
		<g>
			<circle class="st0" cx="5.2" cy="36.9" r="2"/>
			<path class="st3" d="M5.2,39.3c-1.3,0-2.4-1.1-2.4-2.4c0-1.3,1.1-2.4,2.4-2.4s2.4,1.1,2.4,2.4C7.5,38.2,6.5,39.3,5.2,39.3z
				 M5.2,35.3c-0.9,0-1.6,0.7-1.6,1.6c0,0.9,0.7,1.6,1.6,1.6s1.6-0.7,1.6-1.6C6.8,36,6,35.3,5.2,35.3z"/>
		</g>
	</g>
</g>
</svg>
