<svg xmlns="http://www.w3.org/2000/svg" viewBox="-1311 261 20 17.462"><defs><style>.a{fill:#fff;}</style></defs><g transform="translate(-1311 229.95)"><g transform="translate(0 31.05)"><path class="a" d="M252.266,263.75h-2.718A1.35,1.35,0,0,0,248.2,265.1v2.084a1.35,1.35,0,0,0,1.349,1.349h2.718a1.35,1.35,0,0,0,1.349-1.349V265.1A1.35,1.35,0,0,0,252.266,263.75Zm.368,3.433a.369.369,0,0,1-.368.368h-2.718a.369.369,0,0,1-.368-.368V265.1a.369.369,0,0,1,.368-.368h2.718a.369.369,0,0,1,.368.368Z" transform="translate(-238.057 -254.24)"/><path class="a" d="M20,36.771a.455.455,0,0,0-.065-.241L16.96,31.3a.493.493,0,0,0-.425-.249H3.461a.485.485,0,0,0-.425.249L.065,36.53A.5.5,0,0,0,0,36.771a2.869,2.869,0,0,0,1.716,2.624v8.627a.492.492,0,0,0,.49.49H17.789a.492.492,0,0,0,.49-.49V39.456a.216.216,0,0,0,0-.053A2.877,2.877,0,0,0,20,36.771ZM3.747,32.035h12.5l2.325,4.091H1.426ZM14.234,37.1a1.885,1.885,0,0,1-3.711,0Zm-4.753,0a1.887,1.887,0,0,1-3.715,0Zm-8.468,0H4.728a1.887,1.887,0,0,1-3.715,0ZM8.239,47.531H5.419V42.239a.7.7,0,0,1,.7-.7H7.544a.7.7,0,0,1,.7.7v5.292Zm9.06,0H9.219V42.239a1.682,1.682,0,0,0-1.68-1.68H6.114a1.682,1.682,0,0,0-1.68,1.68v5.3H2.7v-7.9c.057,0,.114,0,.172,0a2.865,2.865,0,0,0,2.378-1.267,2.866,2.866,0,0,0,4.757,0,2.858,2.858,0,0,0,4.749,0,2.865,2.865,0,0,0,2.378,1.267c.057,0,.11,0,.168,0v7.9Zm-.168-8.872a1.884,1.884,0,0,1-1.855-1.553h3.715A1.9,1.9,0,0,1,17.131,38.659Z" transform="translate(0 -31.05)"/></g></g></svg>