<?xml version="1.0" encoding="utf-8"?>
<!-- Generator: Adobe Illustrator 20.1.0, SVG Export Plug-In . SVG Version: 6.00 Build 0)  -->
<svg version="1.1" id="Layer_1" xmlns="http://www.w3.org/2000/svg" xmlns:xlink="http://www.w3.org/1999/xlink" x="0px" y="0px"
	 viewBox="0 0 44 44" style="enable-background:new 0 0 44 44;" xml:space="preserve">
<style type="text/css">
	.st0{fill:#FFFFFF;stroke:#03034B;stroke-width:2;stroke-miterlimit:10;}
	.st1{fill:#03034B;}
</style>
<path class="st0" d="M32.8,40.7H11.3c-5,0-9.1-4.1-9.1-9.1V12.4c0-5,4.1-9.1,9.1-9.1h21.5c5,0,9.1,4.1,9.1,9.1v19.2
	C41.8,36.6,37.7,40.7,32.8,40.7z"/>
<g>
	<path class="st1" d="M34.2,30.3H9.9c-1,0-1.7,0.8-1.7,1.7s0.8,1.7,1.7,1.7h24.3c1,0,1.7-0.8,1.7-1.7S35.1,30.3,34.2,30.3z"/>
	<path class="st1" d="M34.2,20.3H9.9c-1,0-1.7,0.8-1.7,1.7s0.8,1.7,1.7,1.7h24.3c1,0,1.7-0.8,1.7-1.7S35.1,20.3,34.2,20.3z"/>
	<path class="st1" d="M9.9,13.7h24.3c1,0,1.7-0.8,1.7-1.7s-0.8-1.7-1.7-1.7H9.9c-1,0-1.7,0.8-1.7,1.7S8.9,13.7,9.9,13.7z"/>
</g>
</svg>
