<?xml version="1.0" encoding="utf-8"?>
<!-- Generator: Adobe Illustrator 20.1.0, SVG Export Plug-In . SVG Version: 6.00 Build 0)  -->
<svg version="1.1" id="Layer_1" xmlns="http://www.w3.org/2000/svg" xmlns:xlink="http://www.w3.org/1999/xlink" x="0px" y="0px"
	 viewBox="0 0 64 64" style="enable-background:new 0 0 64 64;" xml:space="preserve">
<style type="text/css">
	.st0{fill-rule:evenodd;clip-rule:evenodd;fill:#FFFFFF;}
</style>
<path class="st0" d="M32,64C14.3,64,0,49.7,0,32C0,14.3,14.3,0,32,0s32,14.3,32,32C64,49.7,49.7,64,32,64z M46.9,27.2h-20l5.5-5.6
	c1.6-1.6,1.6-4.2,0-5.8c-0.8-0.8-1.8-1.2-2.8-1.2c-1,0-2.1,0.4-2.8,1.2L14.3,28.4c-1.6,1.6-1.6,4.2,0,5.8l12.4,12.6
	c1.6,1.6,4.1,1.6,5.7,0c1.6-1.6,1.6-4.2,0-5.8l-5.5-5.6h20c2.2,0,4-1.8,4-4.1C50.9,29,49.1,27.2,46.9,27.2z"/>
</svg>
