<?xml version="1.0" encoding="utf-8"?>
<!-- Generator: Adobe Illustrator 20.1.0, SVG Export Plug-In . SVG Version: 6.00 Build 0)  -->
<svg version="1.1" id="Layer_1" xmlns="http://www.w3.org/2000/svg" xmlns:xlink="http://www.w3.org/1999/xlink" x="0px" y="0px"
	 viewBox="0 0 64 64" style="enable-background:new 0 0 64 64;" xml:space="preserve">
<style type="text/css">
	.st0{fill-rule:evenodd;clip-rule:evenodd;fill:#FFFFFF;}
</style>
<path class="st0" d="M32,0c17.7,0,32,14.3,32,32c0,17.7-14.3,32-32,32S0,49.7,0,32C0,14.3,14.3,0,32,0z M17.1,36.8h20l-5.5,5.6
	c-1.6,1.6-1.6,4.2,0,5.8c0.8,0.8,1.8,1.2,2.8,1.2c1,0,2.1-0.4,2.8-1.2l12.4-12.6c1.6-1.6,1.6-4.2,0-5.8L37.3,17.2
	c-1.6-1.6-4.1-1.6-5.7,0c-1.6,1.6-1.6,4.2,0,5.8l5.5,5.6h-20c-2.2,0-4,1.8-4,4.1C13.1,35,14.9,36.8,17.1,36.8z"/>
</svg>
