<?xml version="1.0" encoding="utf-8"?>
<!-- Generator: Adobe Illustrator 20.1.0, SVG Export Plug-In . SVG Version: 6.00 Build 0)  -->
<svg version="1.1" id="Capa_1" xmlns="http://www.w3.org/2000/svg" xmlns:xlink="http://www.w3.org/1999/xlink" x="0px" y="0px"
	 viewBox="0 0 552.8 118.9" style="enable-background:new 0 0 552.8 118.9;" xml:space="preserve">
<style type="text/css">
	.st0{fill:#FFFFFF;}
	.st1{fill-rule:evenodd;clip-rule:evenodd;fill:#FFFFFF;}
</style>
<g>
	<g id="Retail_Custom_Solutions">
		<g>
			<path class="st0" d="M131,69.3c-0.7,0-1.1-0.3-1.3-0.5l-0.1-0.1l-7.4-14.5h-8.7v14.3l-0.4,0.4c-0.2,0.2-0.6,0.5-1.3,0.5
				c-0.5,0-0.9-0.2-1.3-0.5l-0.4-0.4V34h12c5.9,0,9.7,4,9.7,10.1c0,4.8-2.3,8.2-6.3,9.6l7.7,15l-1.4,0.5
				C131.7,69.2,131.4,69.3,131,69.3z M113.4,50.8h8.8c4,0,6.3-2.5,6.3-6.8c0-4.2-2.4-6.8-6.3-6.8h-8.8V50.8z"/>
		</g>
		<g>
			<path class="st0" d="M145,69.8c-4.6,0-10.2-2.4-10.2-13.9c0-12.3,7.3-13.6,10.4-13.6c5.6,0,9.2,3.7,9.2,9.4
				c0,2.9-0.5,4.8-0.6,4.8l-0.3,0.9h-15.4c0.5,7.3,3.1,8.9,6.9,8.9c3.4,0,5.5-1.7,5.5-1.7l0.5-0.4l0.6,0.1c0.8,0.2,1.5,0.9,1.5,1.8
				v0.6l-0.4,0.4C152.7,67.3,150.1,69.8,145,69.8z M138.2,54.2H151c0.1-0.6,0.1-1.5,0.1-2.6c0-1.4-0.4-6-5.9-6
				C141,45.7,138.6,48.5,138.2,54.2z"/>
		</g>
		<g>
			<path class="st0" d="M166.2,69.8c-6.5,0-7.3-5-7.3-9.4V46.1h-3.1l-0.4-0.6c-0.1-0.1-0.3-0.5-0.3-1c0-1.3,0.9-1.6,1.4-1.6h2.4V39
				l0.2-0.3c0.2-0.3,0.7-0.9,1.8-0.9h1.3v5h7l0.4,0.4c0.3,0.3,0.5,0.8,0.5,1.2c0,0.5-0.2,0.9-0.5,1.3l-0.4,0.4h-6.9v14.3
				c0,5.2,1.3,6.1,4,6.1c1.5,0,2.6-0.2,2.6-0.2l0.9-0.2l0.5,0.8c0.3,0.5,0.4,1.1,0.3,1.6l-0.2,0.7l-0.7,0.2
				C168.7,69.6,167.7,69.8,166.2,69.8z"/>
		</g>
		<g>
			<path class="st0" d="M178.9,69.8c-5.2,0-8.4-3-8.4-8c0-5,3.7-8.2,9.6-8.2c2.1,0,4.4,0.2,6.2,0.3v-2.6c0-4.3-1.3-5.7-5.4-5.7
				c-3.5,0-6.4,1.1-6.4,1.1l-0.6,0.2l-0.5-0.3c-0.7-0.4-1-1.2-1-1.8v-0.9l0.9-0.3c0.2-0.1,3.8-1.3,7.7-1.3c5.9,0,8.6,2.9,8.6,9v17.4
				l-0.7,0.4c-0.6,0.3-1.2,0.3-1.8,0l-0.7-0.4v-2C184.4,68.6,181.7,69.8,178.9,69.8z M180.3,56.8c-2.4,0-6.5,0.6-6.5,5
				c0,3.1,1.6,4.7,4.9,4.7c4.6,0,7.6-3.1,7.6-8v-1.4C184.7,56.9,182.5,56.8,180.3,56.8z"/>
		</g>
		<g>
			<path class="st0" d="M196.1,69.3c-1,0-1.4-0.6-1.5-0.8l-0.1-0.3V43.9l0.1-0.3c0.1-0.3,0.5-0.8,1.5-0.8c1,0,1.4,0.6,1.5,0.8
				l0.1,0.3v24.3l-0.1,0.3C197.5,68.7,197.1,69.3,196.1,69.3z M196.1,38.9c-0.7,0-1.2-0.3-1.4-0.4l-0.6-0.4v-2.3l0.6-0.4
				c0.1-0.1,0.7-0.4,1.4-0.4c0.8,0,1.3,0.4,1.5,0.5l0.5,0.4V38l-0.5,0.4C197.4,38.5,196.9,38.9,196.1,38.9z"/>
		</g>
		<g>
			<path class="st0" d="M204.8,69.3c-1,0-1.4-0.6-1.5-0.8l-0.1-0.3V33.7l0.1-0.3c0.1-0.2,0.5-0.8,1.5-0.8s1.4,0.6,1.5,0.8l0.1,0.3
				v34.5l-0.1,0.3C206.1,68.8,205.7,69.3,204.8,69.3z"/>
		</g>
		<g>
			<path class="st0" d="M234.5,69.8c-8.6,0-12.9-5.9-12.9-18.1c0-12.1,4.3-18.2,12.9-18.2c5.2,0,8,1.5,8.1,1.6l0.7,0.4v0.8
				c0,0.9-0.4,1.4-0.8,1.6l-0.6,0.5l-0.7-0.4c0,0-2.5-1.2-6.5-1.2c-4.5,0-9.7,1.7-9.7,14.8c0,13,4.9,14.8,9.7,14.8
				c4.4,0,6.9-1.2,7-1.2l0.5-0.3l0.5,0.2c0.7,0.3,1.2,0.9,1.2,1.8v0.8l-0.7,0.4C243,68.2,240.1,69.8,234.5,69.8z"/>
		</g>
		<g>
			<path class="st0" d="M254.3,69.8c-4.9,0-8.2-3.3-8.2-8.3v-18l0.5-0.4c0.7-0.5,1.6-0.5,2.2,0l0.5,0.4v17.9c0,3.2,1.8,5,5,5
				c3.4,0,5.9-1.9,7.5-5.8V43.5l0.5-0.4c0.7-0.5,1.6-0.5,2.2,0l0.5,0.4v25l-0.5,0.4c-0.7,0.5-1.6,0.5-2.2,0l-0.5-0.4v-1.9
				C259.9,68.7,257.4,69.8,254.3,69.8z"/>
		</g>
		<g>
			<path class="st0" d="M276.8,69.8c-4.4,0-7.2-1.5-7.3-1.5l-0.5-0.2l-0.2-0.5c-0.3-0.8,0.2-1.8,0.9-2.2l0.6-0.3l0.6,0.3
				c0.9,0.4,2.8,1.2,5.7,1.2c3.9,0,5.9-1.5,5.9-4.4c0-2.9-2-3.6-5.5-4.6l-0.4-0.1c-2.7-0.7-7.8-2.1-7.8-7.4c0-2.9,1.2-7.7,9-7.7
				c3.3,0,5.9,1,6,1l0.6,0.2l0.2,0.7c0.2,0.7-0.2,1.7-1,2.1l-0.5,0.3l-0.6-0.2c0,0-2.2-0.9-4.7-0.9c-5.1,0-5.8,2.4-5.8,4.4
				c0,2.5,2.4,3.4,4.9,4.1l0.6,0.2c3.6,1,8.3,2.4,8.3,7.9C285.9,66.9,282.5,69.8,276.8,69.8z"/>
		</g>
		<g>
			<path class="st0" d="M297.4,69.8c-6.5,0-7.3-5-7.3-9.4V46.1h-3.1l-0.4-0.6c-0.1-0.1-0.3-0.5-0.3-1c0-1.3,0.9-1.6,1.4-1.6h2.4V39
				l0.2-0.3c0.2-0.3,0.7-0.9,1.8-0.9h1.3v5h7l0.4,0.4c0.3,0.3,0.5,0.8,0.5,1.2c0,0.5-0.2,0.9-0.5,1.3l-0.4,0.4h-6.9v14.3
				c0,5.2,1.3,6.1,4,6.1c1.5,0,2.6-0.2,2.6-0.2l0.9-0.2l0.5,0.8c0.3,0.5,0.4,1.1,0.3,1.6l-0.2,0.7l-0.7,0.2
				C299.9,69.6,298.9,69.8,297.4,69.8z"/>
		</g>
		<g>
			<path class="st0" d="M312.6,69.8c-6.8,0-10.3-4.6-10.3-13.7c0-9.1,3.5-13.7,10.3-13.7c6.8,0,10.3,4.6,10.3,13.7
				C322.9,65.2,319.4,69.8,312.6,69.8z M312.6,45.6c-3.5,0-7,1.2-7,10.4c0,9.2,3.6,10.4,7,10.4c3.5,0,7-1.2,7-10.4
				C319.6,46.9,316.1,45.6,312.6,45.6z"/>
		</g>
		<g>
			<path class="st0" d="M357.6,69.3c-0.4,0-0.8-0.1-1.1-0.4l-0.5-0.4V50.4c0-2.2-0.8-4.8-4.4-4.8c-2.2,0-5,0.7-7,5.9v17.1l-0.5,0.4
				c-0.7,0.5-1.6,0.5-2.2,0l-0.5-0.4V50.4c0-2.2-0.8-4.8-4.4-4.8c-2.2,0-5,0.7-7,5.7v17.2l-0.5,0.4c-0.7,0.5-1.6,0.5-2.2,0l-0.5-0.4
				v-25l0.5-0.4c0.7-0.5,1.6-0.5,2.2,0l0.5,0.4v1.7c1.8-2,4.1-2.9,7-2.9c3.2,0,5.6,1.5,6.8,4c2-2.6,4.7-4,7.9-4c4.6,0,7.6,3.1,7.6,8
				v18.2l-0.5,0.4C358.4,69.2,358,69.3,357.6,69.3z"/>
		</g>
		<g>
			<path class="st0" d="M383.8,69.8c-5.5,0-9.2-1.7-9.3-1.8l-0.8-0.4v-0.8c0-0.5,0.3-1.2,0.7-1.6l0.6-0.6l0.8,0.4
				c0,0,3.5,1.5,7.7,1.5c3.2,0,8.6-0.8,8.6-6.5c0-4.4-3-5.5-7.9-6.8c-4.4-1.1-10.5-2.6-10.5-9.9c0-6,4.3-9.7,11.3-9.7
				c5,0,8.2,1.1,8.4,1.1l0.9,0.3v1c0,0.4-0.1,1-0.6,1.6l-0.6,0.6l-0.8-0.2c0,0-3.5-1-7.3-1c-5.2,0-8,2.3-8,6.4
				c0,4.2,2.5,5.3,7.9,6.7c4.2,1,10.6,2.6,10.6,10C395.5,66,391,69.8,383.8,69.8z"/>
		</g>
		<g>
			<path class="st0" d="M408.1,69.8c-6.8,0-10.3-4.6-10.3-13.7c0-9.1,3.5-13.7,10.3-13.7c6.8,0,10.3,4.6,10.3,13.7
				C418.4,65.2,414.9,69.8,408.1,69.8z M408.1,45.6c-3.5,0-7,1.2-7,10.4c0,9.2,3.6,10.4,7,10.4c3.5,0,7-1.2,7-10.4
				C415.1,46.9,411.6,45.6,408.1,45.6z"/>
		</g>
		<g>
			<path class="st0" d="M424.1,69.3c-1,0-1.4-0.6-1.5-0.8l-0.1-0.3V33.7l0.1-0.3c0.1-0.3,0.5-0.8,1.5-0.8c1,0,1.4,0.6,1.5,0.8
				l0.1,0.3v34.5l-0.1,0.3C425.5,68.7,425.1,69.3,424.1,69.3z"/>
		</g>
		<g>
			<path class="st0" d="M439,69.8c-4.9,0-8.2-3.3-8.2-8.3v-18l0.5-0.4c0.7-0.5,1.6-0.5,2.2,0l0.5,0.4v17.9c0,3.2,1.8,5,5,5
				c3.4,0,5.9-1.9,7.5-5.8V43.5l0.5-0.4c0.7-0.5,1.6-0.5,2.2,0l0.5,0.4v25l-0.5,0.4c-0.6,0.5-1.6,0.5-2.2,0l-0.5-0.4v-1.9
				C444.6,68.7,442,69.8,439,69.8z"/>
		</g>
		<g>
			<path class="st0" d="M463.1,69.8c-6.5,0-7.3-5-7.3-9.4V46.1h-3.1l-0.4-0.6c-0.1-0.1-0.3-0.5-0.3-1.1c0-1.3,0.9-1.6,1.4-1.6h2.4
				V39l0.2-0.3c0.2-0.3,0.7-0.9,1.8-0.9h1.3v5h7l0.4,0.4c0.3,0.3,0.5,0.8,0.5,1.2c0,0.5-0.2,0.9-0.5,1.2l-0.4,0.4h-7v14.3
				c0,5.2,1.3,6.1,4,6.1c1.5,0,2.6-0.2,2.6-0.2l0.9-0.2l0.5,0.8c0.3,0.4,0.4,1.1,0.3,1.6l-0.2,0.7l-0.7,0.2
				C465.6,69.6,464.5,69.8,463.1,69.8z"/>
		</g>
		<g>
			<path class="st0" d="M470.9,69.3c-1,0-1.4-0.6-1.5-0.8l-0.2-0.3V43.9l0.1-0.3c0.1-0.2,0.5-0.8,1.5-0.8c1,0,1.4,0.6,1.5,0.8
				l0.1,0.3v24.3l-0.1,0.3C472.3,68.7,471.9,69.3,470.9,69.3z M470.9,38.9c-0.7,0-1.2-0.3-1.4-0.4l-0.6-0.4v-2.3l0.6-0.4
				c0.1-0.1,0.7-0.4,1.4-0.4c0.8,0,1.3,0.4,1.5,0.5l0.5,0.4V38l-0.5,0.4C472.2,38.5,471.7,38.9,470.9,38.9z"/>
		</g>
		<g>
			<path class="st0" d="M486.9,69.8c-6.8,0-10.3-4.6-10.3-13.7c0-9.1,3.5-13.7,10.3-13.7c6.8,0,10.3,4.6,10.3,13.7
				C497.2,65.2,493.7,69.8,486.9,69.8z M486.9,45.6c-3.5,0-7,1.2-7,10.4c0,9.2,3.6,10.4,7,10.4c3.5,0,7-1.2,7-10.4
				C493.9,46.9,490.3,45.6,486.9,45.6z"/>
		</g>
		<g>
			<path class="st0" d="M518.4,69.3c-0.4,0-0.8-0.1-1.1-0.4l-0.5-0.4V50.4c0-3.9-2.7-4.8-5-4.8c-3.4,0-5.9,1.9-7.5,5.8v17.2
				l-0.5,0.4c-0.7,0.5-1.6,0.5-2.2,0l-0.5-0.4v-25l0.5-0.4c0.6-0.5,1.6-0.5,2.2,0l0.5,0.4v1.9c2-2.1,4.6-3.1,7.6-3.1
				c5,0,8.2,3.1,8.2,8v18.2l-0.5,0.4C519.2,69.2,518.8,69.3,518.4,69.3z"/>
		</g>
		<g>
			<path class="st0" d="M531.5,69.8c-4.4,0-7.2-1.5-7.3-1.5l-0.5-0.2l-0.2-0.5c-0.3-0.8,0.2-1.8,0.9-2.2l0.6-0.3l0.6,0.3
				c0.9,0.4,2.8,1.2,5.7,1.2c3.9,0,5.9-1.5,5.9-4.4c0-2.9-2-3.6-5.5-4.6l-0.4-0.1c-2.7-0.7-7.8-2.1-7.8-7.4c0-2.9,1.2-7.7,9-7.7
				c3.3,0,5.9,1,6,1l0.6,0.2l0.2,0.7c0.2,0.7-0.2,1.7-1,2.1l-0.5,0.3l-0.6-0.2c0,0-2.2-0.9-4.7-0.9c-5.1,0-5.8,2.4-5.8,4.4
				c0,2.5,2.4,3.4,4.9,4.1l0.6,0.2c3.6,1,8.3,2.4,8.3,7.9C540.5,66.9,537.1,69.8,531.5,69.8z"/>
		</g>
	</g>
	<g id="Thinking_Out_Of_The_Box">
		<g>
			<path class="st0" d="M303.7,94.8c-0.3,0-0.5-0.1-0.6-0.2l-0.4-0.2V78.7h-4.7l-0.2-0.4c-0.1-0.1-0.2-0.3-0.2-0.6
				c0-0.6,0.4-0.8,0.5-0.9l0.2-0.1h10.5c0.3,0,0.8,0.3,0.8,1c0,0.4-0.2,0.6-0.3,0.7l-0.2,0.2h-4.4v15.6l-0.2,0.2
				C304.4,94.6,304.2,94.8,303.7,94.8z"/>
		</g>
		<g>
			<path class="st0" d="M312.3,94.8c-0.2,0-0.4-0.1-0.6-0.2l-0.3-0.2V76.5l0.3-0.2c0.4-0.3,0.9-0.3,1.3,0l0.3,0.2v5.8
				c1-0.9,2.2-1.3,3.7-1.3c2.6,0,4.3,1.6,4.3,4.2v9.2l-0.3,0.2c-0.4,0.3-0.9,0.3-1.3,0l-0.3-0.2v-9.2c0-1.9-1.3-2.3-2.4-2.3
				c-1.7,0-2.9,0.9-3.7,2.8v8.7l-0.3,0.2C312.7,94.7,312.5,94.8,312.3,94.8z"/>
		</g>
		<g>
			<path class="st0" d="M325.2,94.8c-0.6,0-0.8-0.4-0.9-0.5l-0.1-0.2V81.8l0.1-0.2c0.1-0.1,0.3-0.5,0.9-0.5c0.6,0,0.8,0.3,0.9,0.5
				l0.1,0.2v12.3l-0.1,0.2C326,94.4,325.8,94.8,325.2,94.8z M325.2,79.5c-0.4,0-0.7-0.2-0.8-0.2l-0.4-0.2v-1.3l0.4-0.2
				c0.1-0.1,0.4-0.2,0.8-0.2c0.5,0,0.7,0.2,0.8,0.3l0.3,0.2V79l-0.3,0.2C325.9,79.3,325.6,79.5,325.2,79.5z"/>
		</g>
		<g>
			<path class="st0" d="M330.2,94.8c-0.2,0-0.4-0.1-0.6-0.2l-0.3-0.2V81.6l0.3-0.2c0.4-0.3,0.9-0.3,1.3,0l0.3,0.2v0.7
				c1-0.9,2.3-1.4,3.7-1.4c2.6,0,4.3,1.6,4.3,4.2v9.2l-0.3,0.2c-0.4,0.3-0.9,0.3-1.3,0l-0.3-0.2v-9.2c0-1.9-1.3-2.3-2.4-2.3
				c-1.7,0-2.9,0.9-3.7,2.8v8.7l-0.3,0.2C330.7,94.7,330.4,94.8,330.2,94.8z"/>
		</g>
		<g>
			<path class="st0" d="M343,94.8c-0.2,0-0.4,0-0.5-0.1l-0.4-0.2V76.4l0.4-0.2c0.3-0.2,0.7-0.2,1,0l0.4,0.2v10.4h2l3.9-5.4l0.2-0.1
				c0.3-0.1,0.6-0.1,0.9,0l1,0.3l-4.4,6.1l4.5,6.1l-0.1,0.4c-0.1,0.3-0.4,0.6-0.9,0.6c-0.4,0-0.7-0.2-0.9-0.4l-4.2-5.7h-2v5.8
				l-0.4,0.2C343.4,94.8,343.2,94.8,343,94.8z"/>
		</g>
		<g>
			<path class="st0" d="M354.6,94.8c-0.6,0-0.8-0.4-0.9-0.5l-0.1-0.2V81.8l0.1-0.2c0.1-0.1,0.3-0.5,0.9-0.5c0.6,0,0.8,0.4,0.9,0.5
				l0.1,0.2v12.3l-0.1,0.2C355.4,94.4,355.2,94.8,354.6,94.8z M354.6,79.5c-0.4,0-0.7-0.2-0.8-0.2l-0.4-0.2v-1.3l0.4-0.2
				c0.1-0.1,0.4-0.2,0.8-0.2c0.5,0,0.7,0.2,0.8,0.3l0.3,0.2V79l-0.3,0.2C355.3,79.3,355,79.5,354.6,79.5z"/>
		</g>
		<g>
			<path class="st0" d="M359.6,94.8c-0.2,0-0.4-0.1-0.6-0.2l-0.3-0.2V81.6l0.3-0.2c0.4-0.3,0.9-0.3,1.3,0l0.3,0.2v0.7
				c1-0.9,2.3-1.4,3.7-1.4c2.6,0,4.3,1.6,4.3,4.2v9.2l-0.3,0.2c-0.4,0.3-0.9,0.3-1.3,0l-0.3-0.2v-9.2c0-1.9-1.3-2.3-2.4-2.3
				c-1.7,0-2.9,0.9-3.7,2.8v8.7l-0.3,0.2C360.1,94.7,359.8,94.8,359.6,94.8z"/>
		</g>
		<g>
			<path class="st0" d="M375.6,100.5c-3.8,0-5.1-2.3-5.1-4.2c0-1.8,0.9-3,1.7-3.7c-0.2-0.4-0.3-0.8-0.3-1.2c0-0.8,0.3-1.5,0.8-2.2
				c-1-0.8-1.6-2.1-1.6-3.6c0-2.8,1.8-4.6,4.8-4.6c0.9,0,1.8,0.2,2.5,0.5l3.1-0.6l0.3,0.5c0.2,0.3,0.2,0.5,0.1,1l-0.1,0.5l-1.7,0.3
				c0.4,0.7,0.6,1.5,0.6,2.4c0,2.8-1.8,4.6-4.8,4.6c-0.5,0-0.9-0.1-1.4-0.2c-0.4,0.5-0.6,0.9-0.6,1.4c0,0.6,0.8,0.7,2.7,0.9
				c2.2,0.2,5.3,0.6,5.3,3.8C381.7,98.1,380.1,100.5,375.6,100.5z M373.7,93.8c-0.9,0.7-1.3,1.6-1.3,2.5c0,2,2.2,2.3,3.2,2.3
				c2.5,0,4.2-1,4.2-2.4c0-1.4-1.2-1.7-3.6-1.9C375.3,94.1,374.4,94,373.7,93.8z M375.7,82.9c-1.3,0-2.8,0.5-2.8,2.7
				c0,2.2,1.5,2.7,2.8,2.7c1.3,0,2.8-0.5,2.8-2.7C378.5,83.3,377,82.9,375.7,82.9z"/>
		</g>
		<g>
			<path class="st0" d="M396,95c-3.1,0-6.7-1.6-6.7-9.3c0-7.7,3.7-9.3,6.7-9.3c3.1,0,6.7,1.6,6.7,9.3C402.7,93.4,399.1,95,396,95z
				 M396,78.4c-1.2,0-4.8,0-4.8,7.3c0,7.3,3.6,7.3,4.8,7.3c1.2,0,4.8,0,4.8-7.3C400.8,78.4,397.2,78.4,396,78.4z"/>
		</g>
		<g>
			<path class="st0" d="M409.4,95c-2.5,0-4.3-1.7-4.3-4.3v-9.1l0.3-0.2c0.4-0.3,0.9-0.3,1.3,0l0.3,0.2v9.1c0,1.5,0.9,2.4,2.4,2.4
				c1.7,0,2.9-0.9,3.7-2.8v-8.7l0.3-0.2c0.4-0.3,0.9-0.3,1.3,0l0.3,0.2v12.7l-0.3,0.2c-0.4,0.3-0.9,0.3-1.3,0l-0.3-0.2v-0.7
				C412.1,94.5,410.9,95,409.4,95z"/>
		</g>
		<g>
			<path class="st0" d="M422.4,95c-3.4,0-3.8-2.6-3.8-4.8v-7.1h-1.5l-0.2-0.3c-0.1-0.1-0.2-0.3-0.2-0.6c0-0.7,0.5-1,0.8-1h1.1v-1.8
				l0.1-0.2c0.2-0.3,0.6-0.5,1-0.5h0.8v2.5h3.4l0.2,0.2c0.2,0.2,0.3,0.4,0.3,0.7s-0.1,0.6-0.3,0.7l-0.2,0.2h-3.4v7.1
				c0,2.5,0.6,2.9,1.9,2.9c0.8,0,1.3-0.1,1.3-0.1l0.5-0.1l0.3,0.5c0.2,0.3,0.2,0.6,0.1,0.9l-0.1,0.4l-0.4,0.1
				C423.7,94.9,423.1,95,422.4,95z"/>
		</g>
		<g>
			<path class="st0" d="M438.5,95c-3.1,0-6.7-1.6-6.7-9.3c0-7.7,3.7-9.3,6.7-9.3c3.1,0,6.7,1.6,6.7,9.3
				C445.2,93.4,441.5,95,438.5,95z M438.5,78.4c-1.2,0-4.8,0-4.8,7.3c0,7.3,3.6,7.3,4.8,7.3c1.2,0,4.8,0,4.8-7.3
				C443.3,78.4,439.6,78.4,438.5,78.4z"/>
		</g>
		<g>
			<path class="st0" d="M449.3,94.8c-0.2,0-0.5-0.1-0.6-0.2l-0.3-0.2V83.1h-1.5l-0.2-0.4c-0.2-0.4-0.1-0.8,0-1.1l0.2-0.4h1.5v-0.7
				c0-3,1.3-4.5,4-4.5c1.1,0,2.1,0.2,2.1,0.3l0.5,0.1l0.1,0.5c0.1,0.4,0,0.8-0.3,1l-0.3,0.3l-0.4-0.1c0,0-0.7-0.2-1.6-0.2
				c-1.6,0-2.1,0.4-2.1,2.5v0.7h3.7l0.2,0.4c0.2,0.4,0.1,0.8,0,0.9l-0.2,0.6h-3.8v11.3l-0.4,0.2C449.7,94.7,449.5,94.8,449.3,94.8z"
				/>
		</g>
		<g>
			<path class="st0" d="M465.8,94.8c-0.3,0-0.5-0.1-0.6-0.2l-0.4-0.2V78.7h-4.7l-0.2-0.4c-0.1-0.1-0.2-0.3-0.2-0.6
				c0-0.6,0.4-0.8,0.5-0.9l0.2-0.1h10.5c0.3,0,0.8,0.3,0.8,1c0,0.4-0.2,0.6-0.3,0.7l-0.2,0.2h-4.4v15.6l-0.2,0.2
				C466.4,94.6,466.2,94.8,465.8,94.8z"/>
		</g>
		<g>
			<path class="st0" d="M474.3,94.8c-0.2,0-0.4-0.1-0.6-0.2l-0.3-0.2V76.5l0.3-0.2c0.4-0.3,0.9-0.3,1.3,0l0.3,0.2v5.8
				c1-0.9,2.2-1.3,3.7-1.3c2.6,0,4.3,1.6,4.3,4.2v9.2l-0.3,0.2c-0.4,0.3-0.9,0.3-1.3,0l-0.3-0.2v-9.2c0-1.9-1.3-2.3-2.4-2.3
				c-1.7,0-2.9,0.9-3.7,2.8v8.7l-0.3,0.2C474.7,94.7,474.5,94.8,474.3,94.8z"/>
		</g>
		<g>
			<path class="st0" d="M490.8,95c-2.4,0-5.3-1.2-5.3-7.1c0-6.3,3.8-7,5.4-7c2.9,0,4.8,2,4.8,4.9c0,1.5-0.3,2.4-0.3,2.5l-0.2,0.6
				h-7.7c0.3,3.5,1.5,4.2,3.3,4.2c1.7,0,2.7-0.8,2.7-0.8l0.3-0.2l0.4,0.1c0.5,0.1,0.9,0.5,0.9,1v0.3l-0.3,0.2
				C494.8,93.8,493.4,95,490.8,95z M487.5,86.9h6.2c0-0.3,0.1-0.7,0.1-1.2c0-0.7-0.2-2.9-2.8-2.9C488.9,82.9,487.8,84.2,487.5,86.9z
				"/>
		</g>
		<g>
			<path class="st0" d="M510.5,94.8h-6V76.7h5.9c3.4,0,5.2,1.8,5.2,5c0,1.8-0.7,3.1-1.6,3.8c1.2,0.7,2.1,2.1,2.1,4.2
				C516.2,92.1,515.2,94.8,510.5,94.8z M506.5,92.8h4.1c3.2,0,3.6-1.5,3.6-3.1c0-1.5-0.4-3.1-3.7-3.1h-4.1V92.8z M506.5,84.7h3.9
				c2.3,0,3.3-0.9,3.3-3c0-1.6-0.4-3-3.4-3h-3.8V84.7z"/>
		</g>
		<g>
			<path class="st0" d="M523.5,95c-3.5,0-5.3-2.4-5.3-7c0-4.7,1.8-7,5.3-7c3.5,0,5.3,2.4,5.3,7C528.8,92.6,527,95,523.5,95z
				 M523.5,82.9c-1.7,0-3.4,0.6-3.4,5.1c0,4.5,1.7,5.1,3.4,5.1s3.4-0.6,3.4-5.1C526.9,83.5,525.2,82.9,523.5,82.9z"/>
		</g>
		<g>
			<path class="st0" d="M530.5,94.8c-0.3,0-0.5-0.1-0.7-0.2l-0.7-0.5l4.5-6.3l-4.5-6.1l0.8-0.4c0.4-0.2,0.9-0.2,1.2,0l0.2,0.1
				l3.5,4.8l3.5-4.8l0.2-0.1c0.3-0.2,0.7-0.2,1.2,0l0.8,0.4l-4.5,6.1l4.5,6.3l-0.7,0.5c-0.3,0.2-0.7,0.3-1.2,0.1l-0.2-0.1l-3.6-5
				l-3.6,5l-0.2,0.1C530.8,94.8,530.7,94.8,530.5,94.8z"/>
		</g>
	</g>
	<g id="Isotype">
		<path class="st1" d="M65.8,17.4c4.2,0.6,6.4,4,4.9,7.7c-1.6,3.9-6.4,6.5-10.8,5.8c-4.2-0.7-6.2-4.3-4.5-8
			C57.1,19.2,61.7,16.8,65.8,17.4z"/>
		<path class="st1" d="M55.8,43.6c4.5,0.9,6.8,5.2,4.9,9.9c-1.9,4.8-7.4,7.9-12.1,6.7c-4.6-1.1-6.5-5.8-4.4-10.3
			C46.2,45.6,51.4,42.8,55.8,43.6z"/>
		<path class="st1" d="M27.1,65.7c4.4,1.1,6.2,6.2,3.7,11.5c-2.5,5.4-8.4,8.8-13.1,7.4c-4.6-1.4-5.8-6.9-3.2-12
			C17.2,67.6,22.7,64.5,27.1,65.7z"/>
		<path class="st1" d="M54.8,78.6c5.1,1.4,7.8,7.2,5.6,13.3c-2.2,6.2-8.5,10-13.9,8.2c-5.3-1.7-7.3-8.1-4.9-13.8
			C43.9,80.6,49.8,77.2,54.8,78.6z"/>
		<path class="st1" d="M86,57.1c5.2,1.1,8.5,6.2,7,11.6c-1.5,5.5-7.4,9-13,7.6c-5.5-1.4-8.2-6.9-6.4-12.1C75.3,59.1,80.8,56,86,57.1
			z"/>
		<path class="st1" d="M29,40.5c4,0.8,5.6,4.9,3.5,9.2c-2.2,4.5-7.6,7.4-11.7,6.4c-4.1-1-5.4-5.3-3-9.6C20,42.4,25,39.7,29,40.5z"/>
		<path class="st1" d="M93.1,29.4c4.8,0.7,7.9,4.7,6.6,9.1C98.5,43,93.2,46,88.1,45c-5-0.9-7.7-5.3-6.2-9.5
			C83.4,31.4,88.4,28.6,93.1,29.4z"/>
		<path class="st1" d="M57.8,19c4.1,0.6,6.1,4,4.5,7.8c-1.7,3.9-6.6,6.5-10.8,5.8c-4.2-0.7-5.9-4.4-4.1-8.1
			C49.1,20.9,53.7,18.5,57.8,19z"/>
	</g>
</g>
</svg>
