<?xml version="1.0" encoding="utf-8"?>
<!-- Generator: Adobe Illustrator 20.1.0, SVG Export Plug-In . SVG Version: 6.00 Build 0)  -->
<svg version="1.1" id="Capa_1" xmlns="http://www.w3.org/2000/svg" xmlns:xlink="http://www.w3.org/1999/xlink" x="0px" y="0px"
	 viewBox="0 0 14 14" style="enable-background:new 0 0 14 14;" xml:space="preserve">
<style type="text/css">
	.st0{fill:#03034B;}
</style>
<path class="st0" d="M7.6,8C7.4,8,7.2,8,7,8S6.6,8,6.4,8C4.9,8,3.6,7.8,2.7,7.5C2.3,7.3,2,7.2,1.7,7v1.5v0.1v0.1V9
	c0.6,0.7,2.6,1.3,5.3,1.3s4.7-0.6,5.3-1.3V8.7V8.5V8.4V7c-0.3,0.2-0.7,0.4-1.1,0.5C10.4,7.8,9.1,7.9,7.6,8z M1.7,3.8v1.5v0.1v0.1
	v0.3C2.2,6.3,4,6.9,6.4,7h0.1c0.1,0,0.1,0,0.2,0C6.8,7,6.9,7,7,7c0.1,0,0.2,0,0.3,0c0.1,0,0.1,0,0.2,0h0.1c2.4-0.1,4.2-0.6,4.7-1.3
	V5.4V5.3V5.2V3.8c-1,0.7-3.2,1.1-5.3,1.1S2.7,4.5,1.7,3.8z M12.3,2.1c-0.2-1-2.1-1.8-5.3-1.8S2,1.2,1.7,2.1v0.1v0.1v0.4
	C2.3,3.4,4.3,4,7,4s4.7-0.6,5.3-1.3V2.4V2.1C12.3,2.2,12.3,2.2,12.3,2.1z M1.7,10v1.7v0.1C2,12.9,4.2,13.7,7,13.7s5-0.8,5.3-1.8
	v-0.1V10c-0.9,0.6-2.7,1.2-5.3,1.2S2.6,10.7,1.7,10z"/>
</svg>
