<?xml version="1.0" encoding="utf-8"?>
<!-- Generator: Adobe Illustrator 20.1.0, SVG Export Plug-In . SVG Version: 6.00 Build 0)  -->
<svg version="1.1" id="Layer_1" xmlns="http://www.w3.org/2000/svg" xmlns:xlink="http://www.w3.org/1999/xlink" x="0px" y="0px"
	 viewBox="0 0 35 35" style="enable-background:new 0 0 35 35;" xml:space="preserve">
<style type="text/css">
	.st0{fill:#0000CD;}
</style>
<path class="st0" d="M7.4,10.9v3.4H7.2c-1.5,0-2.7,1.2-2.7,2.6v14.4c0,1.4,1.2,2.6,2.7,2.6h20.6c1.5,0,2.7-1.2,2.7-2.6V17
	c0-1.4-1.2-2.6-2.7-2.6h-0.1v-3.4c0-5.5-4.6-9.9-10.2-9.9C12,1,7.4,5.5,7.4,10.9z M19.1,24.8c-0.2,0.1-0.3,0.3-0.3,0.5
	c0,1.1,0,2.1,0,3.2l0,0c0,0.4-0.2,0.9-0.6,1.1c-0.9,0.5-1.9-0.2-1.9-1.1v0c0-1.1,0-2.1,0-3.2c0-0.2,0-0.4-0.2-0.5
	c-1-0.7-1.3-1.9-0.8-3c0.5-1,1.6-1.6,2.7-1.4c1.2,0.2,2.1,1.2,2.1,2.4C20.1,23.7,19.8,24.3,19.1,24.8z M11.9,10.9
	c0-3.1,2.6-5.6,5.7-5.6c3.2,0,5.7,2.5,5.7,5.6v3.4H11.9V10.9z"/>
</svg>
