<?xml version="1.0" encoding="utf-8"?>
<!-- Generator: Adobe Illustrator 20.1.0, SVG Export Plug-In . SVG Version: 6.00 Build 0)  -->
<svg version="1.1" id="Layer_2" xmlns="http://www.w3.org/2000/svg" xmlns:xlink="http://www.w3.org/1999/xlink" x="0px" y="0px"
	 viewBox="0 0 150 29.7" style="enable-background:new 0 0 150 29.7;" xml:space="preserve">
<style type="text/css">
	.st0{fill:#03034B;}
</style>
<g>
	<path class="st0" d="M21.8,21.1c-0.1-0.3-0.2-0.7-0.2-1.1s-0.1-0.8-0.1-1.2c0-0.4,0-0.8,0-1.1c0-0.5-0.1-1-0.2-1.5
		s-0.3-0.9-0.6-1.3c-0.3-0.4-0.6-0.7-1.1-1c0,0-0.1,0-0.1-0.1c0.6-0.3,1-0.7,1.4-1.2c0.6-0.9,0.9-1.9,0.9-3.1c0-0.8-0.2-1.6-0.5-2.2
		C21,6.6,20.5,6,20,5.6s-1.1-0.7-1.8-0.9c-0.7-0.2-1.4-0.3-2.1-0.3H7.7v18.1h2.6V15H16c0.7,0,1.2,0.1,1.5,0.3
		c0.4,0.2,0.6,0.5,0.8,0.9c0.2,0.4,0.3,0.9,0.4,1.4c0.1,0.6,0.1,1.2,0.2,1.8c0,0.2,0,0.4,0,0.6s0,0.5,0.1,0.7c0,0.3,0.1,0.5,0.1,0.8
		c0.1,0.3,0.2,0.5,0.3,0.7l0.1,0.2h3.2L22,21.6C22,21.6,21.9,21.4,21.8,21.1z M10.3,6.9h5.6c1.1,0,1.9,0.3,2.4,0.8s0.8,1.2,0.8,2.1
		c0,0.4-0.1,0.8-0.2,1.2c-0.2,0.3-0.4,0.6-0.7,0.9c-0.3,0.2-0.6,0.4-1,0.6c-0.4,0.1-0.8,0.2-1.3,0.2h-5.6
		C10.3,12.7,10.3,6.9,10.3,6.9z"/>
	<path class="st0" d="M36.5,15.5c-0.1,0.7-0.2,1.4-0.5,2s-0.6,1.1-1,1.6c-0.4,0.4-0.9,0.8-1.5,1.1c-0.6,0.3-1.2,0.4-2,0.4
		c-1,0-2-0.2-2.7-0.6s-1.4-0.9-1.8-1.6c-0.5-0.7-0.8-1.4-1.1-2.3c-0.2-0.9-0.4-1.7-0.4-2.6c0-0.9,0.1-1.8,0.4-2.6
		c0.2-0.8,0.6-1.6,1.1-2.3c0.4-0.6,1-1.1,1.8-1.5c0.7-0.4,1.6-0.6,2.7-0.6c0.6,0,1.1,0.1,1.6,0.3c0.5,0.2,1,0.4,1.4,0.7
		c0.4,0.3,0.8,0.7,1.1,1.2s0.5,1,0.6,1.6l0.1,0.4h2.6l-0.1-0.6c-0.1-1-0.4-1.8-0.9-2.6c-0.5-0.7-1-1.4-1.7-1.9s-1.4-0.9-2.3-1.1
		c-0.8-0.3-1.7-0.4-2.5-0.4c-1.4,0-2.7,0.3-3.8,0.8c-1.1,0.5-2,1.2-2.7,2.1s-1.2,1.9-1.6,3c-0.3,1.1-0.5,2.3-0.5,3.5
		s0.2,2.4,0.5,3.5c0.4,1.1,0.9,2.1,1.6,3s1.6,1.6,2.7,2.1s2.3,0.8,3.8,0.8c1.1,0,2.1-0.2,2.9-0.5c0.9-0.3,1.7-0.8,2.3-1.5
		c0.7-0.6,1.2-1.4,1.6-2.3c0.4-0.9,0.7-1.9,0.8-3l0.1-0.6h-2.6L36.5,15.5z"/>
	<path class="st0" d="M52.6,14.1c-0.4-0.4-1-0.7-1.5-0.9c-0.6-0.2-1.2-0.4-1.8-0.6l-4.2-1c-0.3-0.1-0.6-0.2-0.9-0.3
		c-0.3-0.1-0.5-0.2-0.7-0.4s-0.3-0.4-0.4-0.6C43,10,42.9,9.7,42.9,9.4c0-0.5,0.1-1,0.3-1.4s0.5-0.7,0.8-0.9c0.3-0.2,0.7-0.4,1.2-0.5
		c1.1-0.2,2.2-0.2,3.1,0.1c0.5,0.1,0.9,0.4,1.3,0.7C50,7.7,50.3,8,50.5,8.5c0.2,0.4,0.4,0.9,0.4,1.5v0.5h2.6V9.9
		c0-1-0.2-1.8-0.6-2.5c-0.4-0.7-0.9-1.3-1.5-1.8S50,4.7,49.2,4.5s-1.7-0.4-2.6-0.4c-1.3,0-2.3,0.2-3.2,0.6c-0.8,0.4-1.5,0.8-2,1.4
		s-0.8,1.2-1,1.8S40.1,9,40.1,9.5c0,0.7,0.1,1.4,0.4,1.9c0.2,0.5,0.6,1,1,1.3c0.4,0.4,0.9,0.6,1.4,0.9c0.5,0.2,1,0.4,1.5,0.5
		l3.8,0.9c0.4,0.1,0.8,0.2,1.2,0.4c0.4,0.1,0.7,0.3,1,0.5s0.5,0.4,0.7,0.7s0.3,0.6,0.3,1c0,0.5-0.1,1-0.4,1.3
		c-0.3,0.4-0.6,0.7-1,0.9c-0.4,0.3-0.9,0.4-1.3,0.6c-0.5,0.1-0.9,0.2-1.3,0.2c-0.7,0-1.4-0.1-2.1-0.2c-0.6-0.1-1.2-0.4-1.6-0.7
		c-0.4-0.3-0.8-0.7-1-1.2c-0.3-0.5-0.4-1.2-0.4-2V16h-2.6v0.5c-0.1,1.1,0.1,2.1,0.5,2.9s0.9,1.5,1.6,2c0.7,0.5,1.5,0.9,2.4,1.2
		c0.9,0.2,1.9,0.4,2.9,0.4s2-0.1,2.7-0.3c0.8-0.2,1.4-0.5,1.9-0.8s1-0.7,1.3-1.1s0.5-0.8,0.7-1.2c0.2-0.4,0.3-0.8,0.3-1.2
		c0-0.3,0.1-0.6,0.1-0.8c0-0.8-0.1-1.5-0.4-2C53.5,15,53.1,14.5,52.6,14.1z"/>
	<path class="st0" d="M76.5,21.1c-0.1-0.3-0.2-0.7-0.2-1.1s-0.1-0.8-0.1-1.2c0-0.4,0-0.8,0-1.1c0-0.5-0.1-1.1-0.2-1.5
		c-0.1-0.5-0.3-0.9-0.6-1.3c-0.3-0.4-0.6-0.7-1.1-1c0,0-0.1,0-0.1-0.1c0.6-0.3,1-0.7,1.4-1.2c0.6-0.9,0.9-1.9,0.9-3.1
		c0-0.8-0.2-1.6-0.5-2.2s-0.7-1.2-1.3-1.6c-0.5-0.4-1.1-0.7-1.8-0.9c-0.7-0.2-1.4-0.3-2.1-0.3h-8.3v18.1H65V15h5.7
		c0.7,0,1.2,0.1,1.5,0.3c0.4,0.2,0.6,0.5,0.8,0.9c0.2,0.4,0.3,0.9,0.4,1.4c0.1,0.6,0.1,1.2,0.2,1.8c0,0.2,0,0.4,0,0.6s0,0.5,0.1,0.7
		c0,0.3,0.1,0.5,0.1,0.8c0.1,0.3,0.2,0.5,0.3,0.7l0.1,0.2h3.2l-0.7-0.8C76.7,21.6,76.6,21.4,76.5,21.1z M65,6.9h5.6
		c1.1,0,1.9,0.3,2.4,0.8s0.8,1.2,0.8,2.1c0,0.4-0.1,0.8-0.2,1.2c-0.2,0.3-0.4,0.6-0.7,0.9c-0.3,0.2-0.6,0.4-1,0.6
		c-0.4,0.1-0.8,0.2-1.3,0.2H65V6.9z"/>
	<path class="st0" d="M87,17.9c-0.2,0.9-0.6,1.6-1.1,2.1s-1.3,0.7-2.3,0.7c-0.6,0-1.2-0.1-1.6-0.4c-0.5-0.3-0.8-0.6-1.1-1
		c-0.3-0.4-0.5-0.9-0.7-1.4c-0.1-0.4-0.2-0.7-0.2-1.1h9.5v-0.5c0-0.9-0.1-1.8-0.3-2.7c-0.2-0.9-0.5-1.7-1-2.4
		c-0.5-0.7-1.1-1.3-1.9-1.7s-1.7-0.7-2.8-0.7c-1.1,0-2,0.2-2.8,0.6c-0.8,0.4-1.4,1-1.9,1.6c-0.5,0.7-0.8,1.4-1.1,2.3
		c-0.2,0.8-0.3,1.7-0.3,2.5c0,0.9,0.1,1.8,0.3,2.6c0.2,0.8,0.6,1.6,1.1,2.3c0.5,0.7,1.1,1.2,1.9,1.6s1.7,0.6,2.8,0.6
		c1.7,0,3-0.4,4-1.3c0.9-0.8,1.6-2,1.9-3.5l0.1-0.6H87V17.9z M80.1,14.6c0.1-0.3,0.2-0.7,0.3-1c0.2-0.5,0.4-0.9,0.7-1.3
		c0.3-0.4,0.6-0.6,1.1-0.9c0.8-0.4,2-0.4,2.8,0c0.4,0.2,0.8,0.5,1.1,0.9c0.3,0.4,0.5,0.8,0.7,1.3c0.1,0.3,0.2,0.7,0.2,1H80.1z"/>
	<path class="st0" d="M101.5,11L101.5,11c-0.5-0.7-1.2-1.2-1.9-1.6c-0.8-0.4-1.7-0.6-2.7-0.6c-1.1,0-2.1,0.3-3,0.8
		c-0.4,0.2-0.7,0.5-1,0.8V9.2h-2.4v17.9H93v-5.8c0.3,0.3,0.6,0.6,1,0.8c0.4,0.2,0.9,0.4,1.4,0.6c0.5,0.1,1,0.2,1.5,0.2
		c1,0,1.9-0.2,2.7-0.6c0.8-0.4,1.4-0.9,1.9-1.6c0.5-0.6,0.9-1.4,1.1-2.3c0.2-0.8,0.4-1.7,0.4-2.6s-0.1-1.8-0.4-2.6
		C102.4,12.4,102,11.7,101.5,11z M98.5,20.3c-0.4,0.3-1,0.4-1.6,0.4c-0.7,0-1.3-0.1-1.8-0.4s-0.9-0.6-1.2-1.1
		c-0.3-0.4-0.5-1-0.7-1.5c-0.1-0.6-0.2-1.2-0.2-1.8c0-0.7,0.1-1.3,0.2-1.9c0.1-0.6,0.3-1.1,0.6-1.5c0.3-0.4,0.7-0.7,1.2-1
		s1.1-0.4,1.9-0.4c0.6,0,1.2,0.1,1.6,0.4c0.4,0.3,0.8,0.6,1.1,1.1c0.3,0.4,0.5,1,0.7,1.5c0.1,0.6,0.2,1.2,0.2,1.8s-0.1,1.2-0.2,1.8
		c-0.1,0.6-0.4,1.1-0.7,1.5C99.3,19.7,99,20,98.5,20.3z"/>
	<path class="st0" d="M114.8,11c-0.5-0.6-1.2-1.2-2-1.5c-0.8-0.4-1.7-0.6-2.7-0.6s-1.9,0.2-2.7,0.6c-0.8,0.4-1.5,0.9-2,1.5
		s-0.9,1.4-1.2,2.2c-0.3,0.8-0.4,1.7-0.4,2.7c0,0.9,0.1,1.9,0.4,2.7c0.3,0.8,0.7,1.6,1.2,2.2s1.2,1.2,2,1.5c0.8,0.4,1.7,0.6,2.7,0.6
		s1.9-0.2,2.7-0.6c0.8-0.4,1.5-0.9,2-1.5s0.9-1.4,1.2-2.2c0.3-0.8,0.4-1.7,0.4-2.7c0-0.9-0.1-1.8-0.4-2.7
		C115.8,12.4,115.3,11.6,114.8,11z M108.4,11.5c0.5-0.3,1-0.4,1.7-0.4c0.6,0,1.2,0.1,1.7,0.4c0.5,0.3,0.9,0.6,1.2,1.1
		c0.3,0.4,0.6,1,0.7,1.5c0.2,0.6,0.3,1.2,0.3,1.8c0,0.6-0.1,1.2-0.3,1.8c-0.2,0.6-0.4,1.1-0.7,1.5c-0.3,0.4-0.7,0.8-1.2,1.1
		c-0.9,0.5-2.4,0.5-3.3,0c-0.5-0.3-0.9-0.6-1.2-1.1c-0.3-0.4-0.6-1-0.7-1.5c-0.2-0.6-0.3-1.2-0.3-1.8c0-0.6,0.1-1.2,0.3-1.8
		c0.2-0.6,0.4-1.1,0.7-1.5C107.5,12.2,108,11.8,108.4,11.5z"/>
	<path class="st0" d="M128.7,5.5h-2.5v3.7h-1.3V9.1h-0.5c-1.2-0.1-2.3,0.2-3.2,0.8c-0.4,0.3-0.8,0.6-1.1,1V9.2h-2.4v13.4h2.5v-7.1
		c0-0.6,0.1-1.1,0.3-1.6c0.2-0.5,0.5-0.9,0.8-1.3c0.4-0.3,0.8-0.6,1.3-0.8s1-0.3,1.7-0.2h0.5v-0.1h1.3v8c0,1.2,0.2,2,0.7,2.5
		s1.3,0.7,2.5,0.7c0.2,0,0.5,0,0.7,0s0.4,0,0.6,0h0.5v-2.3l-0.6,0.1c-0.4,0-0.8,0.1-1.2,0.1s-0.6-0.1-0.6-0.2
		c-0.1-0.2-0.2-0.5-0.2-0.9v-7.9h2.5V9.2h-2.5V5.5H128.7z"/>
	<path class="st0" d="M142.3,17.1c-0.2-0.5-0.5-0.8-0.9-1.2c-0.4-0.3-0.8-0.6-1.3-0.7c-0.5-0.2-0.9-0.3-1.4-0.4l-2-0.5
		c-0.2-0.1-0.5-0.1-0.8-0.2c-0.3-0.1-0.5-0.2-0.7-0.3s-0.4-0.3-0.5-0.5c-0.1-0.1-0.2-0.3-0.2-0.6s0.1-0.5,0.2-0.7
		c0.1-0.2,0.3-0.4,0.5-0.5s0.5-0.2,0.8-0.3c0.7-0.1,1.4-0.1,2,0c0.3,0.1,0.6,0.2,0.8,0.4s0.4,0.4,0.6,0.7c0.1,0.3,0.2,0.6,0.2,1v0.5
		h2.5v-0.5c0-0.7-0.2-1.4-0.5-1.9c-0.3-0.6-0.6-1-1.1-1.4s-1-0.7-1.6-0.8c-1.1-0.3-2.4-0.3-3.6-0.1c-0.6,0.1-1.2,0.4-1.6,0.7
		c-0.5,0.3-0.9,0.7-1.3,1.2c-0.3,0.5-0.5,1.2-0.5,1.9c0,0.6,0.1,1.1,0.3,1.6c0.2,0.4,0.5,0.8,0.9,1.1c0.3,0.3,0.8,0.5,1.2,0.7
		s0.9,0.3,1.4,0.5l1.9,0.4c0.3,0.1,0.6,0.2,1,0.3c0.3,0.1,0.5,0.2,0.8,0.4c0.2,0.1,0.3,0.3,0.5,0.5c0.1,0.2,0.2,0.4,0.2,0.7
		c0,0.3-0.1,0.6-0.2,0.8c-0.2,0.2-0.4,0.4-0.7,0.6s-0.6,0.3-0.9,0.4c-1.3,0.3-2.4,0.1-3.3-0.6c-0.6-0.4-0.9-1.1-0.9-2v-0.5h-2.5v0.5
		c0.1,1.7,0.7,2.9,1.7,3.7c1,0.8,2.3,1.1,3.8,1.1c0.6,0,1.2-0.1,1.9-0.2c0.6-0.1,1.2-0.4,1.8-0.7c0.5-0.3,1-0.8,1.3-1.3
		c0.4-0.6,0.5-1.2,0.5-2C142.7,18.1,142.6,17.6,142.3,17.1z"/>
</g>
</svg>
