<svg xmlns="http://www.w3.org/2000/svg" viewBox="2.041 81 20 20"><defs><style>.a{fill:#999;}</style></defs><g transform="translate(2.041 81)"><path class="a" d="M15.313,5.859V2.344H14.141V0H5.859V2.344H4.688V5.859H0V20H20V5.859ZM4.688,18.828H1.172V7.031H4.688ZM7.031,1.172h5.937V2.344H7.031ZM9.414,18.828H5.859V14.063H9.414Zm4.727,0H10.586V14.063h3.555Zm0-5.937H5.859V10.547h8.281Zm0-3.516H5.859V7.031h8.281Zm0-3.516H5.859V3.516h8.281Zm4.687,12.969H15.313V7.031h3.516Z"/><rect class="a" width="1.172" height="2.344" transform="translate(2.344 8.203)"/><rect class="a" width="1.172" height="2.344" transform="translate(2.344 11.719)"/><rect class="a" width="1.172" height="2.344" transform="translate(16.484 8.203)"/><rect class="a" width="1.172" height="2.344" transform="translate(16.484 11.719)"/></g></svg>