<svg xmlns="http://www.w3.org/2000/svg" viewBox="-1311 299 20 17.647"><defs><style>.a{fill:#fff;}.b,.d{fill:none;}.b{stroke:#fff;stroke-width:0.7px;}.c{stroke:none;}</style></defs><g transform="translate(-1310.438 248.408)"><path class="a" d="M15.729,50.616v-.024H.9v.024a.982.982,0,0,0-.9.878v9.749a.957.957,0,0,0,.13.488.909.909,0,0,0,.846.5H6.331v1.351H5.314a.448.448,0,0,0,0,.9h6a.448.448,0,1,0,0-.9H10.294V62.228h5.354a.906.906,0,0,0,.846-.5.983.983,0,0,0,.138-.488V51.495A1,1,0,0,0,15.729,50.616Zm0,.96v9.667c0,.057-.024.082-.081.082H.976C.92,61.325.9,61.3.9,61.244V51.495H15.729v.082Z" transform="translate(0.099 0)"/><g class="b" transform="translate(17.085 51.768)"><path class="c" d="M0,0H1.353a1,1,0,0,1,1,1V7.235a1,1,0,0,1-1,1H0a0,0,0,0,1,0,0V0A0,0,0,0,1,0,0Z"/><path class="d" d="M.7.35h.653A.65.65,0,0,1,2,1V7.235a.65.65,0,0,1-.65.65H.7a.35.35,0,0,1-.35-.35V.7A.35.35,0,0,1,.7.35Z"/></g><g class="b" transform="translate(-0.563 64.71)"><path class="c" d="M1,0H19a1,1,0,0,1,1,1V3.529a0,0,0,0,1,0,0H0a0,0,0,0,1,0,0V1A1,1,0,0,1,1,0Z"/><path class="d" d="M1,.35H19a.65.65,0,0,1,.65.65V2.829a.35.35,0,0,1-.35.35H.7a.35.35,0,0,1-.35-.35V1A.65.65,0,0,1,1,.35Z"/></g></g></svg>